<?xml version="1.0" encoding="UTF-8"?>
<svg width="8" height="8" viewBox="0 0 8 8" fill="none" xmlns="http://www.w3.org/2000/svg">
  <!-- Center sparkle -->
  <path d="M4 1L4.5 3H6.5L5 4.5L5.5 6.5L4 5.5L2.5 6.5L3 4.5L1.5 3H3.5L4 1Z" stroke="currentColor" stroke-width="0.5" stroke-linecap="round" stroke-linejoin="round"/>
  
  <!-- Additional sparkles -->
  <path d="M1.5 1.5L1.7 2.2H2.4L1.8 2.6L2 3.3L1.5 2.9L1 3.3L1.2 2.6L0.6 2.2H1.3L1.5 1.5Z" stroke="currentColor" stroke-width="0.4" stroke-linecap="round" stroke-linejoin="round"/>
  <path d="M6.5 1.5L6.7 2.2H7.4L6.8 2.6L7 3.3L6.5 2.9L6 3.3L6.2 2.6L5.6 2.2H6.3L6.5 1.5Z" stroke="currentColor" stroke-width="0.4" stroke-linecap="round" stroke-linejoin="round"/>
  <path d="M6.5 5.5L6.7 6.2H7.4L6.8 6.6L7 7.3L6.5 6.9L6 7.3L6.2 6.6L5.6 6.2H6.3L6.5 5.5Z" stroke="currentColor" stroke-width="0.4" stroke-linecap="round" stroke-linejoin="round"/>
  <path d="M1.5 5.5L1.7 6.2H2.4L1.8 6.6L2 7.3L1.5 6.9L1 7.3L1.2 6.6L0.6 6.2H1.3L1.5 5.5Z" stroke="currentColor" stroke-width="0.4" stroke-linecap="round" stroke-linejoin="round"/>
</svg>