<?xml version="1.0" encoding="UTF-8"?>
<svg width="8" height="8" viewBox="0 0 8 8" fill="none" xmlns="http://www.w3.org/2000/svg">
  <!-- Vacuum hose curved part -->
  <path d="M2 3.5C2 2 3 1 4 1C5 1 6 2 6 3" stroke="currentColor" stroke-width="0.5" stroke-linecap="round" />
  
  <!-- Vacuum hose straight part -->
  <path d="M2 3.5V4.5" stroke="currentColor" stroke-width="0.5" stroke-linecap="round" />
  
  <!-- Vacuum base/head -->
  <path d="M1 5H3C3.3 5 3.5 4.8 3.5 4.5C3.5 4.2 3.3 4 3 4H1C0.7 4 0.5 4.2 0.5 4.5C0.5 4.8 0.7 5 1 5Z" stroke="currentColor" stroke-width="0.5" stroke-linecap="round" />
  
  <!-- Vacuum canister body -->
  <path d="M5 3.5C5 3.5 4.5 4 4.5 4.5V5C4.5 5.5 5 6 5.5 6H6.5C7 6 7.5 5.5 7.5 5V4.5C7.5 4 7 3.5 7 3.5" stroke="currentColor" stroke-width="0.5" stroke-linecap="round" stroke-linejoin="round" />
  
  <!-- Vacuum canister connecting piece -->
  <path d="M5 3.5H7" stroke="currentColor" stroke-width="0.5" stroke-linecap="round" />
  
  <!-- Wheels -->
  <circle cx="5.5" cy="6.5" r="0.3" stroke="currentColor" stroke-width="0.3" />
  <circle cx="6.5" cy="6.5" r="0.3" stroke="currentColor" stroke-width="0.3" />
</svg>