<?xml version="1.0" encoding="UTF-8"?>
<svg width="8" height="8" viewBox="0 0 8 8" fill="none" xmlns="http://www.w3.org/2000/svg">
  <!-- Main water drop -->
  <path d="M4 1C4 1 2 3 2 4.5C2 6 3 6.5 4 6.5C5 6.5 6 6 6 4.5C6 3 4 1 4 1Z" stroke="currentColor" stroke-width="0.5" stroke-linecap="round" stroke-linejoin="round"/>
  
  <!-- Small water drop left -->
  <path d="M2 2.5C2 2.5 1.5 3.5 1.5 4C1.5 4.5 2 4.8 2.5 4.8C3 4.8 3.5 4.5 3.5 4C3.5 3.5 2 2.5 2 2.5Z" stroke="currentColor" stroke-width="0.4" stroke-linecap="round" stroke-linejoin="round"/>
  
  <!-- Small water drop right -->
  <path d="M6 2.5C6 2.5 5.5 3.5 5.5 4C5.5 4.5 6 4.8 6.5 4.8C7 4.8 7.5 4.5 7.5 4C7.5 3.5 6 2.5 6 2.5Z" stroke="currentColor" stroke-width="0.4" stroke-linecap="round" stroke-linejoin="round"/>
  
  <!-- Highlight in main drop -->
  <path d="M3.5 3.5C3.6 3.2 3.8 3 4 3" stroke="currentColor" stroke-width="0.3" stroke-linecap="round"/>
</svg>