<svg xmlns="http://www.w3.org/2000/svg" xmlns:xlink="http://www.w3.org/1999/xlink" viewBox="180 588 1720 790" preserveAspectRatio="xMidYMid meet"><defs><g/><clipPath id="6f88721515"><path d="M 1719.429688 1134.511719 L 1844.101562 1134.511719 L 1844.101562 1259.179688 L 1719.429688 1259.179688 Z M 1719.429688 1134.511719" clip-rule="nonzero"/></clipPath><clipPath id="5473a3ae9d"><path d="M 1781.765625 1134.511719 C 1747.339844 1134.511719 1719.429688 1162.417969 1719.429688 1196.84375 C 1719.429688 1231.269531 1747.339844 1259.179688 1781.765625 1259.179688 C 1816.191406 1259.179688 1844.101562 1231.269531 1844.101562 1196.84375 C 1844.101562 1162.417969 1816.191406 1134.511719 1781.765625 1134.511719 Z M 1781.765625 1134.511719" clip-rule="nonzero"/></clipPath><clipPath id="97d79f8b1d"><path d="M 0.429688 0.511719 L 125.101562 0.511719 L 125.101562 125.179688 L 0.429688 125.179688 Z M 0.429688 0.511719" clip-rule="nonzero"/></clipPath><clipPath id="51ad80244a"><path d="M 62.765625 0.511719 C 28.339844 0.511719 0.429688 28.417969 0.429688 62.84375 C 0.429688 97.269531 28.339844 125.179688 62.765625 125.179688 C 97.191406 125.179688 125.101562 97.269531 125.101562 62.84375 C 125.101562 28.417969 97.191406 0.511719 62.765625 0.511719 Z M 62.765625 0.511719" clip-rule="nonzero"/></clipPath><clipPath id="bfc032f798"><rect x="0" width="126" y="0" height="126"/></clipPath><clipPath id="37f3437c3b"><rect x="0" width="1700" y="0" height="902"/></clipPath></defs><g clip-path="url(#6f88721515)"><g clip-path="url(#5473a3ae9d)"><g transform="matrix(1, 0, 0, 1, 1719, 1134)"><g clip-path="url(#bfc032f798)"><g clip-path="url(#97d79f8b1d)"><g clip-path="url(#51ad80244a)"><path fill="#8c52ff" d="M 0.429688 0.511719 L 125.101562 0.511719 L 125.101562 125.179688 L 0.429688 125.179688 Z M 0.429688 0.511719" fill-opacity="1" fill-rule="nonzero"/></g></g></g></g></g></g><g transform="matrix(1, 0, 0, 1, 207, 572)"><g><g fill="#000000" fill-opacity="1"><g transform="translate(1.004504, 628.505923)"><g><path d="M 451.984375 -221.25 C 470.484375 -215.382812 475.894531 -202.53125 468.21875 -182.6875 C 465.0625 -174.113281 461.675781 -165.65625 458.0625 -157.3125 C 454.457031 -148.96875 450.851562 -140.285156 447.25 -131.265625 C 428.300781 -86.609375 406.535156 -53.566406 381.953125 -32.140625 C 357.367188 -10.710938 325.679688 0 286.890625 0 C 268.847656 0 252.269531 -3.609375 237.15625 -10.828125 C 222.039062 -18.046875 210.425781 -27.742188 202.3125 -39.921875 C 188.78125 -26.390625 174.457031 -16.351562 159.34375 -9.8125 C 144.226562 -3.269531 129.457031 0 115.03125 0 C 83.445312 0 60.664062 -10.257812 46.6875 -30.78125 C 32.707031 -51.3125 25.71875 -76.6875 25.71875 -106.90625 C 25.71875 -129.007812 29.097656 -152.460938 35.859375 -177.265625 C 42.628906 -202.078125 52.101562 -226.210938 64.28125 -249.671875 C 76.457031 -273.128906 90.890625 -294.441406 107.578125 -313.609375 C 124.273438 -332.785156 142.882812 -348.007812 163.40625 -359.28125 C 183.925781 -370.5625 205.460938 -376.203125 228.015625 -376.203125 C 241.097656 -376.203125 253.273438 -373.609375 264.546875 -368.421875 C 275.828125 -363.234375 284.398438 -356.128906 290.265625 -347.109375 L 367.40625 -536.5625 C 374.175781 -552.800781 382.410156 -564.53125 392.109375 -571.75 C 401.804688 -578.96875 411.613281 -582.578125 421.53125 -582.578125 C 431.90625 -582.578125 441.039062 -578.738281 448.9375 -571.0625 C 456.832031 -563.394531 460.78125 -553.25 460.78125 -540.625 C 460.78125 -532.050781 458.976562 -523.476562 455.375 -514.90625 L 449.28125 -500.03125 L 325.453125 -195.546875 C 315.984375 -173.441406 308.878906 -156.1875 304.140625 -143.78125 C 299.398438 -131.375 296.128906 -123.144531 294.328125 -119.09375 C 289.816406 -106.007812 289.929688 -94.617188 294.671875 -84.921875 C 299.410156 -75.222656 307.414062 -70.375 318.6875 -70.375 C 329.96875 -70.375 342.035156 -76.007812 354.890625 -87.28125 C 367.742188 -98.5625 379.132812 -116.378906 389.0625 -140.734375 C 391.3125 -145.242188 394.238281 -152.125 397.84375 -161.375 C 401.457031 -170.625 406.875 -183.816406 414.09375 -200.953125 C 422.21875 -219.898438 434.847656 -226.664062 451.984375 -221.25 Z M 147.5 -81.1875 C 156.519531 -81.1875 166.671875 -86.257812 177.953125 -96.40625 C 189.234375 -106.5625 199.609375 -123.367188 209.078125 -146.828125 L 228.703125 -195.546875 L 262.53125 -278.765625 C 261.625 -285.085938 259.253906 -290.273438 255.421875 -294.328125 C 251.585938 -298.390625 246.0625 -300.421875 238.84375 -300.421875 C 227.570312 -300.421875 216.296875 -296.132812 205.015625 -287.5625 C 193.742188 -278.988281 183.253906 -267.820312 173.546875 -254.0625 C 163.847656 -240.3125 155.164062 -225.203125 147.5 -208.734375 C 139.832031 -192.273438 133.851562 -176.148438 129.5625 -160.359375 C 125.28125 -144.566406 123.140625 -130.359375 123.140625 -117.734375 C 123.140625 -106.453125 125.054688 -97.539062 128.890625 -91 C 132.722656 -84.457031 138.925781 -81.1875 147.5 -81.1875 Z M 147.5 -81.1875"/></g></g></g><g fill="#000000" fill-opacity="1"><g transform="translate(371.109279, 628.505923)"><g><path d="M 451.984375 -221.25 C 470.484375 -215.382812 475.894531 -202.53125 468.21875 -182.6875 C 465.0625 -174.113281 461.675781 -165.65625 458.0625 -157.3125 C 454.457031 -148.96875 450.851562 -140.285156 447.25 -131.265625 C 428.300781 -86.609375 406.535156 -53.566406 381.953125 -32.140625 C 357.367188 -10.710938 325.679688 0 286.890625 0 C 268.847656 0 252.269531 -3.609375 237.15625 -10.828125 C 222.039062 -18.046875 210.425781 -27.742188 202.3125 -39.921875 C 188.78125 -26.390625 174.457031 -16.351562 159.34375 -9.8125 C 144.226562 -3.269531 129.457031 0 115.03125 0 C 83.445312 0 60.664062 -10.257812 46.6875 -30.78125 C 32.707031 -51.3125 25.71875 -76.6875 25.71875 -106.90625 C 25.71875 -129.007812 29.097656 -152.460938 35.859375 -177.265625 C 42.628906 -202.078125 52.101562 -226.210938 64.28125 -249.671875 C 76.457031 -273.128906 90.890625 -294.441406 107.578125 -313.609375 C 124.273438 -332.785156 142.882812 -348.007812 163.40625 -359.28125 C 183.925781 -370.5625 205.460938 -376.203125 228.015625 -376.203125 C 241.554688 -376.203125 254.1875 -373.378906 265.90625 -367.734375 C 277.632812 -362.097656 286.207031 -354.546875 291.625 -345.078125 C 297.9375 -354.097656 305.039062 -360.75 312.9375 -365.03125 C 320.832031 -369.320312 328.390625 -371.46875 335.609375 -371.46875 C 345.984375 -371.46875 355.113281 -367.632812 363 -359.96875 C 370.894531 -352.300781 374.84375 -342.148438 374.84375 -329.515625 C 374.84375 -320.941406 373.039062 -312.367188 369.4375 -303.796875 L 363.34375 -288.921875 L 325.453125 -195.546875 C 315.984375 -173.441406 308.878906 -156.1875 304.140625 -143.78125 C 299.398438 -131.375 296.128906 -123.144531 294.328125 -119.09375 C 289.816406 -106.007812 289.929688 -94.617188 294.671875 -84.921875 C 299.410156 -75.222656 307.414062 -70.375 318.6875 -70.375 C 329.96875 -70.375 342.035156 -76.007812 354.890625 -87.28125 C 367.742188 -98.5625 379.132812 -116.378906 389.0625 -140.734375 C 391.3125 -145.242188 394.238281 -152.125 397.84375 -161.375 C 401.457031 -170.625 406.875 -183.816406 414.09375 -200.953125 C 422.21875 -219.898438 434.847656 -226.664062 451.984375 -221.25 Z M 147.5 -81.1875 C 156.519531 -81.1875 166.671875 -86.257812 177.953125 -96.40625 C 189.234375 -106.5625 199.609375 -123.367188 209.078125 -146.828125 L 228.703125 -195.546875 L 262.53125 -278.765625 C 261.625 -285.085938 259.140625 -290.273438 255.078125 -294.328125 C 251.023438 -298.390625 245.613281 -300.421875 238.84375 -300.421875 C 227.570312 -300.421875 216.296875 -296.132812 205.015625 -287.5625 C 193.742188 -278.988281 183.253906 -267.820312 173.546875 -254.0625 C 163.847656 -240.3125 155.164062 -225.203125 147.5 -208.734375 C 139.832031 -192.273438 133.851562 -176.148438 129.5625 -160.359375 C 125.28125 -144.566406 123.140625 -130.359375 123.140625 -117.734375 C 123.140625 -106.453125 125.054688 -97.539062 128.890625 -91 C 132.722656 -84.457031 138.925781 -81.1875 147.5 -81.1875 Z M 147.5 -81.1875"/></g></g></g><g fill="#000000" fill-opacity="1"><g transform="translate(741.214054, 628.505923)"><g><path d="M 438.453125 -221.25 C 451.535156 -217.195312 458.078125 -209.304688 458.078125 -197.578125 C 458.078125 -193.515625 456.945312 -188.550781 454.6875 -182.6875 C 430.332031 -122.238281 397.289062 -74.082031 355.5625 -38.21875 C 313.84375 -2.363281 263.210938 15.5625 203.671875 15.5625 C 177.953125 15.5625 153.585938 11.5 130.578125 3.375 C 107.578125 -4.738281 87.507812 -16.015625 70.375 -30.453125 L 36.53125 52.78125 L 12.171875 111.640625 C 6.316406 126.523438 -1.570312 137.125 -11.5 143.4375 C -21.425781 149.757812 -31.125 152.921875 -40.59375 152.921875 C -51.425781 152.921875 -60.785156 149.535156 -68.671875 142.765625 C -76.566406 136.003906 -80.515625 126.53125 -80.515625 114.34375 C -80.515625 106.675781 -78.9375 98.785156 -75.78125 90.671875 L -60.21875 52.78125 L 93.375 -325.453125 C 100.144531 -341.691406 108.378906 -353.421875 118.078125 -360.640625 C 127.773438 -367.859375 137.582031 -371.46875 147.5 -371.46875 C 156.519531 -371.46875 164.75 -368.421875 172.1875 -362.328125 C 179.632812 -356.242188 184.265625 -348.015625 186.078125 -337.640625 C 196.453125 -349.367188 208.175781 -358.835938 221.25 -366.046875 C 234.332031 -373.265625 248.09375 -376.875 262.53125 -376.875 C 285.53125 -376.875 303.34375 -367.625 315.96875 -349.125 C 328.601562 -330.632812 334.921875 -307.179688 334.921875 -278.765625 C 334.921875 -253.960938 330.863281 -227.125 322.75 -198.25 C 314.632812 -169.382812 303.128906 -141.867188 288.234375 -115.703125 C 273.347656 -89.535156 255.757812 -67.882812 235.46875 -50.75 C 275.164062 -56.15625 308.429688 -72.503906 335.265625 -99.796875 C 362.109375 -127.085938 383.875 -160.804688 400.5625 -200.953125 C 406.875 -215.835938 415.894531 -223.28125 427.625 -223.28125 C 430.78125 -223.28125 434.390625 -222.601562 438.453125 -221.25 Z M 123.140625 -76.453125 C 138.023438 -76.453125 152.347656 -82.992188 166.109375 -96.078125 C 179.867188 -109.160156 192.046875 -125.625 202.640625 -145.46875 C 213.242188 -165.320312 221.585938 -185.847656 227.671875 -207.046875 C 233.765625 -228.242188 236.8125 -246.960938 236.8125 -263.203125 C 236.8125 -275.378906 234.671875 -284.398438 230.390625 -290.265625 C 226.109375 -296.128906 220.359375 -299.0625 213.140625 -299.0625 C 205.015625 -299.0625 196.101562 -295 186.40625 -286.875 C 176.707031 -278.757812 167.800781 -266.582031 159.6875 -250.34375 L 96.078125 -93.375 C 98.335938 -88.863281 101.832031 -84.914062 106.5625 -81.53125 C 111.300781 -78.144531 116.828125 -76.453125 123.140625 -76.453125 Z M 123.140625 -76.453125"/></g></g></g><g fill="#000000" fill-opacity="1"><g transform="translate(1097.786672, 628.505923)"><g><path d="M 399.203125 -221.25 C 417.703125 -215.382812 423.117188 -202.53125 415.453125 -182.6875 C 412.296875 -174.113281 408.910156 -165.65625 405.296875 -157.3125 C 401.691406 -148.96875 398.082031 -140.285156 394.46875 -131.265625 C 375.519531 -86.609375 353.753906 -53.566406 329.171875 -32.140625 C 304.585938 -10.710938 272.898438 0 234.109375 0 C 216.515625 0 200.390625 -3.378906 185.734375 -10.140625 C 171.078125 -16.910156 159.460938 -26.269531 150.890625 -38.21875 C 142.316406 -50.175781 138.03125 -63.828125 138.03125 -79.171875 C 138.03125 -86.378906 139.15625 -94.492188 141.40625 -103.515625 C 143.664062 -112.546875 147.613281 -124.390625 153.25 -139.046875 C 158.894531 -153.703125 166.453125 -172.535156 175.921875 -195.546875 L 199.609375 -253.0625 C 200.503906 -255.3125 201.175781 -257.113281 201.625 -258.46875 C 202.082031 -259.820312 202.3125 -261.175781 202.3125 -262.53125 C 202.3125 -269.300781 198.476562 -274.488281 190.8125 -278.09375 L 144.796875 -298.390625 L 97.4375 -179.984375 C 94.726562 -172.765625 90.78125 -167.460938 85.59375 -164.078125 C 80.40625 -160.691406 74.878906 -159 69.015625 -159 C 61.796875 -159 55.253906 -161.253906 49.390625 -165.765625 C 43.523438 -170.285156 40.59375 -176.828125 40.59375 -185.390625 C 40.59375 -189.003906 41.492188 -193.289062 43.296875 -198.25 C 46.910156 -207.269531 53.335938 -223.171875 62.578125 -245.953125 C 71.828125 -268.734375 82.316406 -294.554688 94.046875 -323.421875 C 84.128906 -330.191406 76.578125 -338.648438 71.390625 -348.796875 C 66.203125 -358.953125 63.609375 -369.441406 63.609375 -380.265625 C 63.609375 -401.015625 69.695312 -416.578125 81.875 -426.953125 C 94.050781 -437.328125 107.359375 -442.515625 121.796875 -442.515625 C 138.929688 -442.515625 152.007812 -436.988281 161.03125 -425.9375 C 170.050781 -414.882812 174.5625 -401.914062 174.5625 -387.03125 C 174.5625 -385.675781 174.5625 -384.320312 174.5625 -382.96875 C 174.5625 -381.613281 174.335938 -380.035156 173.890625 -378.234375 L 265.90625 -338.984375 C 291.625 -327.710938 304.484375 -311.023438 304.484375 -288.921875 C 304.484375 -280.347656 302.453125 -270.648438 298.390625 -259.828125 L 272.6875 -195.546875 C 263.207031 -173.441406 256.097656 -156.1875 251.359375 -143.78125 C 246.628906 -131.375 243.363281 -123.144531 241.5625 -119.09375 C 237.039062 -106.007812 237.148438 -94.617188 241.890625 -84.921875 C 246.628906 -75.222656 254.632812 -70.375 265.90625 -70.375 C 277.1875 -70.375 289.253906 -76.007812 302.109375 -87.28125 C 314.960938 -98.5625 326.351562 -116.378906 336.28125 -140.734375 C 338.539062 -145.242188 341.472656 -152.125 345.078125 -161.375 C 348.679688 -170.625 354.09375 -183.816406 361.3125 -200.953125 C 369.4375 -219.898438 382.066406 -226.664062 399.203125 -221.25 Z M 399.203125 -221.25"/></g></g></g></g></g></svg>